# xmcd
#
# Track frame offsets: 
#        150
#        11440
#        19435
#        31614
#        42800
#        56501
#        68829
#        83854
#        94560
#        106386
#        118781
#        126507
#        138094
#        151915
#
# Disc length: 2209 seconds
#
# Revision: 0
# Processed by: cddbd v1.5.2PL0 Copyright (c) Steve Scherf et al.
# Submitted via: ExactAudioCopy v0.95b4
#
DISCID=ac089f0e
DTITLE=Sourdough Slim - Ridin' High, Singin' A Song
DYEAR=1997
DGENRE=Country
TTITLE0=Ridin' High, Singin' A Song
TTITLE1=Jalapeno Polka
TTITLE2=The Yodeling Cowboy
TTITLE3=Ride That Bronco Buckaroo
TTITLE4=Conestogas Ho!
TTITLE5=Mala Noche
TTITLE6=I Just Yodel My Troubles Away
TTITLE7=Dang Your Hide
TTITLE8=Roundup Romp
TTITLE9=Song From The Mountains
TTITLE10=Bunkhouse Polka
TTITLE11=Ramblin' Cowboy
TTITLE12=There's Music In The Air, Way Out West
TTITLE13=Ridin' High Reprise
EXTD=
EXTT0=
EXTT1=
EXTT2=
EXTT3=
EXTT4=
EXTT5=
EXTT6=
EXTT7=
EXTT8=
EXTT9=
EXTT10=
EXTT11=
EXTT12=
EXTT13=
PLAYORDER=
